<svg id="Capa_1" enable-background="new 0 0 512 512" height="512" viewBox="0 0 512 512" width="512" xmlns="http://www.w3.org/2000/svg"><g><path fill="#fff" d="m103.08 196.597c-4.142 0-7.5-3.358-7.5-7.5 0-4.142 3.358-7.5 7.5-7.5 4.142 0 7.5 3.358 7.5 7.5 0 4.142-3.358 7.5-7.5 7.5z"/><path fill="#fff" d="m408.92 196.597c-4.142 0-7.5-3.358-7.5-7.5 0-4.142 3.358-7.5 7.5-7.5 4.142 0 7.5 3.358 7.5 7.5 0 4.142-3.357 7.5-7.5 7.5z"/><path fill="#fff" d="m103.08 139.252c-4.142 0-7.5-3.358-7.5-7.5 0-4.142 3.358-7.5 7.5-7.5 4.142 0 7.5 3.358 7.5 7.5 0 4.142-3.358 7.5-7.5 7.5z"/><path fill="#fff" d="m408.92 139.252c-4.142 0-7.5-3.358-7.5-7.5 0-4.142 3.358-7.5 7.5-7.5 4.142 0 7.5 3.358 7.5 7.5 0 4.142-3.357 7.5-7.5 7.5z"/><path fill="#fff" d="m504.5 286.735h-68.965v-61.47h30.734c4.143 0 7.5-3.357 7.5-7.5v-114.69c0-4.143-3.357-7.5-7.5-7.5h-30.734v-30.726c0-4.143-3.357-7.5-7.5-7.5h-38.229c-4.143 0-7.5 3.357-7.5 7.5v30.726h-44.986c-4.143 0-7.5 3.357-7.5 7.5s3.357 7.5 7.5 7.5h121.45v42.35h-405.54v-42.35h251.4c4.143 0 7.5-3.357 7.5-7.5s-3.357-7.5-7.5-7.5h-174.936v-30.726c0-4.143-3.357-7.5-7.5-7.5h-38.229c-4.142 0-7.5 3.357-7.5 7.5v30.726h-30.735c-4.143 0-7.5 3.357-7.5 7.5v114.69c0 4.143 3.357 7.5 7.5 7.5h30.734v61.47h-68.964c-4.143 0-7.5 3.357-7.5 7.5v38.229c0 4.143 3.357 7.5 7.5 7.5h30.734v30.726c0 4.143 3.357 7.5 7.5 7.5h11.616v68.961c0 4.143 3.357 7.5 7.5 7.5h38.23c4.143 0 7.5-3.357 7.5-7.5v-68.961h11.614c4.143 0 7.5-3.357 7.5-7.5v-30.726h136.706c4.143 0 7.5-3.357 7.5-7.5s-3.357-7.5-7.5-7.5h-251.4v-23.229h482v23.229h-197.91c-4.143 0-7.5 3.357-7.5 7.5s3.357 7.5 7.5 7.5h83.216v30.726c0 4.143 3.357 7.5 7.5 7.5h11.614v68.961c0 4.143 3.357 7.5 7.5 7.5h38.23c4.143 0 7.5-3.357 7.5-7.5v-68.961h11.615c4.143 0 7.5-3.357 7.5-7.5v-30.726h30.735c4.143 0 7.5-3.357 7.5-7.5v-38.229c0-4.143-3.357-7.5-7.5-7.5zm-83.965-191.16h-23.229v-23.226h23.229zm-329.07-23.226h23.229v23.226h-23.229zm4.115 367.302h-23.23v-61.461h23.23zm-42.346-99.687h61.46v23.226h-61.46zm61.46-114.694v61.46h-23.229v-61.46zm267.612 61.465h-252.612v-61.47h22.016c4.142 0 7.5-3.357 7.5-7.5s-3.358-7.5-7.5-7.5h-98.48v-42.341h405.54v42.341h-274.37c-4.143 0-7.5 3.357-7.5 7.5s3.357 7.5 7.5 7.5h197.905v61.47zm38.229-.005h-23.229v-61.46h23.229zm19.115 152.921h-23.23v-61.461h23.23zm19.116-76.461h-61.46v-23.226h61.46z"/></g></svg>