<?xml version="1.0"?>
<svg xmlns="http://www.w3.org/2000/svg" viewBox="0 0 64 64" width="512" height="512"><g id="outline"><path fill="#fff" d="M42,11a3,3,0,0,0-3,3v3H35V7a3,3,0,0,0-6,0V8H25V5a3,3,0,0,0-6,0v6a3,3,0,0,0,3,3h7v6H24a3.147,3.147,0,0,0-3,2.909l-2,22a1,1,0,0,0,.375.875.99.99,0,0,0,.937.164l2.414-.8,2.563,2.562A1,1,0,0,0,26,48a.987.987,0,0,0,.383-.076A1,1,0,0,0,27,47V26h2V50H27a1,1,0,0,0,0,2h2v4H26a3,3,0,0,0-3,3v2a1,1,0,0,0,1,1H40a1,1,0,0,0,1-1V59a3,3,0,0,0-3-3H35V52h2a1,1,0,0,0,0-2H35V40h7a3,3,0,0,0,3-3V31a3,3,0,0,0-6,0v3H35V23h7a3,3,0,0,0,3-3V14A3,3,0,0,0,42,11ZM25,44.586l-1.293-1.293A1,1,0,0,0,23,43a.987.987,0,0,0-.316.052l-1.55.515L23,23.083A1.18,1.18,0,0,1,24,22h1ZM31,7a1,1,0,0,1,2,0V56H31Zm-9,5a1,1,0,0,1-1-1V5a1,1,0,0,1,2,0V9a1,1,0,0,0,1,1h5v2Zm5,12V22h2v2ZM38,58a1,1,0,0,1,1,1v1H25V59a1,1,0,0,1,1-1Zm2-22a1,1,0,0,0,1-1V31a1,1,0,0,1,2,0v6a1,1,0,0,1-1,1H35V36Zm3-16a1,1,0,0,1-1,1H35V19h5a1,1,0,0,0,1-1V14a1,1,0,0,1,2,0Z"/></g></svg>
