<svg id="Capa_1" enable-background="new 0 0 512 512" height="512" viewBox="0 0 512 512" width="512" xmlns="http://www.w3.org/2000/svg"><g><g><g><path d="m426 479h-340c-24.813 0-45-20.187-45-45v-389c0-24.813 20.187-45 45-45h340c24.813 0 45 20.187 45 45v389c0 24.813-20.187 45-45 45zm-340-449c-8.271 0-15 6.729-15 15v389c0 8.271 6.729 15 15 15h340c8.271 0 15-6.729 15-15v-389c0-8.271-6.729-15-15-15z" fill="#fff"/></g><g><path d="m128 512c-8.284 0-15-6.716-15-15v-33c0-8.284 6.716-15 15-15s15 6.716 15 15v33c0 8.284-6.716 15-15 15z" fill="#fff"/></g><g><path d="m384 512c-8.284 0-15-6.716-15-15v-33c0-8.284 6.716-15 15-15s15 6.716 15 15v33c0 8.284-6.716 15-15 15z" fill="#fff"/></g><g><path d="m256 479c-8.284 0-15-6.716-15-15v-449c0-8.284 6.716-15 15-15s15 6.716 15 15v449c0 8.284-6.716 15-15 15z" fill="#fff"/></g><g><path d="m456 351h-200c-8.284 0-15-6.716-15-15s6.716-15 15-15h200c8.284 0 15 6.716 15 15s-6.716 15-15 15z" fill="#fff"/></g><g><path d="m368 416h-24c-8.284 0-15-6.716-15-15s6.716-15 15-15h24c8.284 0 15 6.716 15 15s-6.716 15-15 15z" fill="#fff"/></g><g><path d="m192 255c-8.284 0-15-6.716-15-15v-24c0-8.284 6.716-15 15-15s15 6.716 15 15v24c0 8.284-6.716 15-15 15z" fill="#fff"/></g><g><path d="m320 255c-8.284 0-15-6.716-15-15v-24c0-8.284 6.716-15 15-15s15 6.716 15 15v24c0 8.284-6.716 15-15 15z" fill="#fff"/></g></g></g></svg>