<svg height="480pt" viewBox="-96 0 480 480.00314" width="480pt" xmlns="http://www.w3.org/2000/svg"><path fill="#fff" d="m279.152344 8.707031c-5.800782-7.03125-15.089844-10.160156-23.960938-8.070312-8.871094 2.089843-15.785156 9.039062-17.835937 17.917969l-43.753907 189.449218h-161.601562c-17.671875 0-32 14.324219-32 32v232c0 4.417969 3.582031 8 8 8h24c4.199219.011719 7.691406-3.222656 8-7.410156l13.058594-176.589844h142.445312l52.800782 178.269532c1.011718 3.40625 4.144531 5.742187 7.695312 5.730468h24c2.429688 0 4.726562-1.097656 6.246094-2.992187 1.519531-1.894531 2.097656-4.375 1.570312-6.746094l-47.648437-214.398437 44-227.375c1.375-7.015626-.464844-14.273438-5.015625-19.785157zm-254.582032 455.296875h-8.570312v-200h23.386719zm29.679688-184 1.183594-16h130.59375l4.742187 16zm207.726562 184-52.800781-178.242187-6.453125-21.757813h22.878906l44.441407 200zm6.503907-438.554687-43.078125 222.554687h-209.402344v-8c0-8.835937 7.164062-16 16-16h168c3.726562 0 6.964844-2.570312 7.800781-6.199218l45.144531-195.640626c1.019532-4.167968 5.164063-6.773437 9.359376-5.882812 4.199218.886719 6.933593 4.945312 6.175781 9.167969zm0 0"/></svg>