<svg id="Layer_1" height="512" viewBox="0 0 512 512" width="512" xmlns="http://www.w3.org/2000/svg" data-name="Layer 1"><path fill="#fff" d="m464.785 205.762c-.309 0-.615.015-.923.023v-56.3c0-17.637-14.588-31.986-32.519-31.986h-149.684a32.149 32.149 0 0 0 -26.453 13.6 32.656 32.656 0 0 0 -26.584-13.6h-150.533c-17.931 0-32.519 14.349-32.519 31.986v56.315c-20.032.85-36.065 17.132-36.065 37.031v133.694a8.635 8.635 0 0 0 8.652 8.6h58.115a8.635 8.635 0 0 0 8.652-8.6v-38.639l342.152.1v38.536a8.635 8.635 0 0 0 8.652 8.6h58.115a8.636 8.636 0 0 0 8.652-8.6v-133.688c.005-20.441-16.917-37.072-37.71-37.072zm-197.622-70.307a20.291 20.291 0 0 1 14.5-5.955h149.68c11.314 0 20.519 8.966 20.519 19.986v58.519a37.177 37.177 0 0 0 -24.786 34.829v5.384l-165.9-.046.02-97.859a20.73 20.73 0 0 1 5.967-14.858zm-189.074-5.955h150.533c11.314 0 20.518 8.966 20.518 19.988l.038 98.681-164.254-.046v-5.289a37.23 37.23 0 0 0 -27.354-35.634v-57.714c0-11.02 9.205-19.986 20.519-19.986zm-56.584 243.624v-130.29c0-13.825 11.534-25.072 25.71-25.072s25.709 11.247 25.709 25.072v10.112a5.964 5.964 0 0 0 0 2.351v117.827zm63.419-47.238v-65.763l170.244.047h.026l171.882.048v65.771zm405.576 47.238h-51.424v-130.29c0-13.825 11.533-25.072 25.709-25.072s25.71 11.247 25.71 25.072z"/></svg>