<svg id="outline" height="512" viewBox="0 0 512 512" width="512" xmlns="http://www.w3.org/2000/svg"><path fill="#fff" d="m456 80h-400a40.04552 40.04552 0 0 0 -40 40v272a40.04552 40.04552 0 0 0 40 40h400a40.04552 40.04552 0 0 0 40-40v-272a40.04552 40.04552 0 0 0 -40-40zm0 336h-400a24.0275 24.0275 0 0 1 -24-24v-8.022a39.79015 39.79015 0 0 0 24 8.022h32v-16h-32a24.02718 24.02718 0 0 1 -24-24v-8.022a39.79015 39.79015 0 0 0 24 8.022h400a39.79015 39.79015 0 0 0 24-8.022v8.022a24.0275 24.0275 0 0 1 -24 24h-128v16h128a39.79015 39.79015 0 0 0 24-8.022v8.022a24.0275 24.0275 0 0 1 -24 24zm24-104a24.0275 24.0275 0 0 1 -24 24h-400a24.0275 24.0275 0 0 1 -24-24v-192a24.0275 24.0275 0 0 1 24-24h400a24.0275 24.0275 0 0 1 24 24z"/><path fill="#fff" d="m104 376h16v16h-16z"/><path fill="#fff" d="m296 376h16v16h-16z"/><path fill="#fff" d="m104 136v-16h-16v16a8.00917 8.00917 0 0 1 -8 8h-16v16h16a8.00917 8.00917 0 0 1 8 8v32a8.00917 8.00917 0 0 1 -8 8h-16v16h16a8.00917 8.00917 0 0 1 8 8v32a8.00917 8.00917 0 0 1 -8 8h-16v16h16a8.00917 8.00917 0 0 1 8 8v16h16v-16a8.00917 8.00917 0 0 1 8-8h16v-16h-16a8.00917 8.00917 0 0 1 -8-8v-32a8.00917 8.00917 0 0 1 8-8h16v-16h-16a8.00917 8.00917 0 0 1 -8-8v-32a8.00917 8.00917 0 0 1 8-8h16v-16h-16a8.00917 8.00917 0 0 1 -8-8z"/><path fill="#fff" d="m184 136v-16h-16v16a8.00917 8.00917 0 0 1 -8 8h-16v16h16a8.00917 8.00917 0 0 1 8 8v32a8.00917 8.00917 0 0 1 -8 8h-16v16h16a8.00917 8.00917 0 0 1 8 8v32a8.00917 8.00917 0 0 1 -8 8h-16v16h16a8.00917 8.00917 0 0 1 8 8v16h16v-16a8.00917 8.00917 0 0 1 8-8h16v-16h-16a8.00917 8.00917 0 0 1 -8-8v-32a8.00917 8.00917 0 0 1 8-8h16v-16h-16a8.00917 8.00917 0 0 1 -8-8v-32a8.00917 8.00917 0 0 1 8-8h16v-16h-16a8.00917 8.00917 0 0 1 -8-8z"/><path fill="#fff" d="m264 136v-16h-16v16a8.00917 8.00917 0 0 1 -8 8h-16v16h16a8.00917 8.00917 0 0 1 8 8v32a8.00917 8.00917 0 0 1 -8 8h-16v16h16a8.00917 8.00917 0 0 1 8 8v32a8.00917 8.00917 0 0 1 -8 8h-16v16h16a8.00917 8.00917 0 0 1 8 8v16h16v-16a8.00917 8.00917 0 0 1 8-8h16v-16h-16a8.00917 8.00917 0 0 1 -8-8v-32a8.00917 8.00917 0 0 1 8-8h16v-16h-16a8.00917 8.00917 0 0 1 -8-8v-32a8.00917 8.00917 0 0 1 8-8h16v-16h-16a8.00917 8.00917 0 0 1 -8-8z"/><path fill="#fff" d="m344 136v-16h-16v16a8.00917 8.00917 0 0 1 -8 8h-16v16h16a8.00917 8.00917 0 0 1 8 8v32a8.00917 8.00917 0 0 1 -8 8h-16v16h16a8.00917 8.00917 0 0 1 8 8v32a8.00917 8.00917 0 0 1 -8 8h-16v16h16a8.00917 8.00917 0 0 1 8 8v16h16v-16a8.00917 8.00917 0 0 1 8-8h16v-16h-16a8.00917 8.00917 0 0 1 -8-8v-32a8.00917 8.00917 0 0 1 8-8h16v-16h-16a8.00917 8.00917 0 0 1 -8-8v-32a8.00917 8.00917 0 0 1 8-8h16v-16h-16a8.00917 8.00917 0 0 1 -8-8z"/><path fill="#fff" d="m424 136v-16h-16v16a8.00917 8.00917 0 0 1 -8 8h-16v16h16a8.00917 8.00917 0 0 1 8 8v32a8.00917 8.00917 0 0 1 -8 8h-16v16h16a8.00917 8.00917 0 0 1 8 8v32a8.00917 8.00917 0 0 1 -8 8h-16v16h16a8.00917 8.00917 0 0 1 8 8v16h16v-16a8.00917 8.00917 0 0 1 8-8h16v-16h-16a8.00917 8.00917 0 0 1 -8-8v-32a8.00917 8.00917 0 0 1 8-8h16v-16h-16a8.00917 8.00917 0 0 1 -8-8v-32a8.00917 8.00917 0 0 1 8-8h16v-16h-16a8.00917 8.00917 0 0 1 -8-8z"/></svg>