<svg xmlns="http://www.w3.org/2000/svg" viewBox="0 0 810 160">
 <style type="text/css">.st0{fill-rule:evenodd;clip-rule:evenodd;fill:#FF0000;}</style>
 <g>
    <path id="svg_3" d="m456.3,30.300002l0,85.3c0,8.1 -9.1,14.1 -17.8,8.4c-2.3,-1.5 -3.6,-4.1 -3.6,-6.8l0,-17.6c0,-5.7 -4.7,-10.4 -10.4,-10.4l-1.5,0c-5.8,0 -10.4,4.7 -10.4,10.4l0,35.9c0,5.9 -4.8,10.6 -10.7,10.6c-5.9,0 -10.7,-4.8 -10.7,-10.6l0,-57c0,-5.9 4.2,-10.7 9.5,-10.7l23.9,0c5.7,0 10.4,-4.6 10.4,-10.4l0,-41.3c0,-4.8 -3.1,-9.1 -7.7,-10.5c-7.3,-2.3 -15.1,-3.6 -23.2,-3.6c-23,0 -43.7,10.1 -57.8,26.1c-2.3,2.6 -0.4,6.8 3.1,6.8l64,0c5.9,0 10.7,4.8 10.7,10.7c0,5.9 -4.8,10.7 -10.7,10.7l-21.8,0c-5.8,0 -10.4,4.7 -10.4,10.4l0,48.8c0,5.9 -4.8,10.7 -10.7,10.7c-5.9,0 -10.7,-4.8 -10.7,-10.7l0,-48.8c0,-5.7 -4.7,-10.4 -10.4,-10.4l-11.4,0c-4.6,0 -8.5,3.3 -9.3,7.7c-0.9,4.7 -1.4,9.6 -1.4,14.5c0,42.2 34.4,76.5 76.7,76.5c42.4,0 76.7,-34.2 76.7,-76.5c0,-19.2 -7.1,-36.7 -18.9,-50.2c-1.9,-2.3 -5.5,-1 -5.5,2zm349.9,78.8l-15.3,-56.8c-1.1,-4.1 -3,-8.2 -5.9,-11.4c-0.2,-0.2 -0.4,-0.5 -0.7,-0.7c-3.4,-3.4 -7.7,-5.5 -13.1,-5.5l-5,0c-5.2,0 -10,2 -13.7,5.3c-3.7,3.2 -6.5,7.6 -7.8,12.4l-11.5,45.2c-0.6,2.5 -2.2,4.7 -4.5,5.9c-3.4,1.7 -5.5,5.4 -5,9.4c0.6,5.2 5.3,8.9 10.4,8.3c3.9,-0.5 7.5,-2.1 10.3,-4.6c2.8,-2.5 4.9,-5.8 5.8,-9.6l0,0l13,-50.8c1.2,-4.6 7.6,-4.7 9,-0.5c0.2,0.4 0.3,0.9 0.4,1.4l15.4,56.8c1.3,5 6.5,8 11.5,6.7c5.1,-1.4 8,-6.5 6.7,-11.5zm-94.2,-72.6c-5.4,0 -9.4,3.3 -9.4,9.1l0,16.5c0,10.7 -5.1,19.2 -17,19.2c-11.9,0 -17.8,-8.5 -17.8,-19.2l0,-16.5c0,-5.8 -4,-9.1 -9.4,-9.1c-5.4,0 -9.4,3.3 -9.4,9.1l0,17.4c0,19.8 15.7,34.4 36.7,34.4c6.6,0 10.6,-1.5 16.1,-4.1c-4,12.9 -18,16.5 -28.2,10c-3.8,-2.4 -8.7,-1.2 -11.1,2.5c-2.4,3.8 -1.2,8.7 2.5,11.1c6.7,4.2 13.7,6.2 20.5,6.2c8.6,-0.4 16.5,-2.9 23.3,-8.3c8.3,-6.2 12.8,-15.5 12.8,-26.9l0,-17.4c0,-0.9 -0.1,-1.8 -0.3,-2.6c0.2,-1.6 0.4,-3.2 0.4,-4.9l0,-17.4c-0.3,-5.8 -4.3,-9.1 -9.7,-9.1zm-575.9,0.7l-46.2,0c-5.4,0 -8.5,4 -8.5,8c0,4 2.5,8 8.5,8l13.7,0l0,58.5c0,5.8 4,9.1 9.4,9.1c5.4,0 9.4,-3.3 9.4,-9.1l0,-58.5l13.7,0c6,0 8.6,-4.1 8.6,-8c-0.1,-4 -3.2,-8 -8.6,-8zm-70.6,62.7c-5.1,0 -9.4,4.9 -20,4.9c-15.5,0 -23.6,-11.9 -23.6,-25.8c0,-14.2 8.1,-26.5 23.6,-26.5c10.6,0 14.1,4.1 19.2,4.1c4.7,0 7.8,-3.6 7.8,-7.8c0,-10.3 -17.8,-13.1 -27,-13.1c-25.6,0 -43.2,18.7 -43.2,42.9c0,24.1 17.7,42.9 43.2,42.9c9.3,0 28.3,-2.6 28.3,-13.8c0,-2.6 -2.6,-7.8 -8.3,-7.8zm121.6,-64.1c-25.6,0 -43.2,18.7 -43.2,42.9c0,24.1 17.7,42.9 43.2,42.9c25.8,0 43.2,-18.8 43.2,-42.9c0,-23.7 -17.9,-42.9 -43.2,-42.9zm0,69.7c-16,0 -23.6,-12.6 -23.6,-26.8c0,-14.1 7.9,-26.8 23.6,-26.8c15.7,0 23.6,12.7 23.6,26.8c0,14.2 -7.6,26.8 -23.6,26.8zm444.4,-68.3l-46.2,0c-5.4,0 -8.5,4 -8.5,8c0,4 2.5,8 8.5,8l13.7,0l0,58.5c0,5.8 4,9.1 9.4,9.1c5.4,0 9.4,-3.3 9.4,-9.1l0,-58.5l13.7,0c6,0 8.5,-4.1 8.5,-8c0.1,-4 -3.1,-8 -8.5,-8zm-334.7,15.1c-1.1,-4.1 -3,-8.2 -5.9,-11.4c-0.2,-0.2 -0.4,-0.5 -0.7,-0.7c-3.4,-3.4 -7.7,-5.5 -13.1,-5.5l-5,0c-5.2,0 -9.9,2 -13.7,5.3c-3.7,3.2 -6.6,7.6 -7.8,12.4l-11.5,45.2c-0.6,2.5 -2.2,4.7 -4.5,5.9c-3.4,1.7 -5.5,5.4 -5,9.4c0.6,5.2 5.3,8.9 10.4,8.3c3.9,-0.5 7.5,-2.1 10.3,-4.6c2.8,-2.5 4.9,-5.8 5.8,-9.6l0,0l13,-50.8c1.2,-4.6 7.6,-4.7 9,-0.5c0.2,0.4 0.3,0.9 0.4,1.4l15.3,56.8c1.3,5 6.5,8 11.5,6.7c5,-1.3 8,-6.5 6.7,-11.5l-15.2,-56.8zm264,47.6c-5.2,0 -9.4,4.9 -20,4.9c-15.5,0 -23.6,-11.9 -23.6,-25.8c0,-14.2 8,-26.5 23.6,-26.5c10.5,0 14.1,4.1 19.2,4.1c4.6,0 7.8,-3.6 7.8,-7.8c0,-10.3 -17.8,-13.1 -27,-13.1c-25.6,0 -43.2,18.7 -43.2,42.9c0,24.1 17.7,42.9 43.2,42.9c9.3,0 28.3,-2.6 28.3,-13.8c0,-2.6 -2.6,-7.8 -8.3,-7.8z" class="st0"/>
 </g>
</svg>